<svg width="56" height="56" viewBox="0 0 56 56" fill="none" xmlns="http://www.w3.org/2000/svg">
<g filter="url(#filter0_d_0_210)">
<path d="M28 44C39.0457 44 48 35.0457 48 24C48 12.9543 39.0457 4 28 4C16.9543 4 8 12.9543 8 24C8 35.0457 16.9543 44 28 44Z" fill="#FF3A62"/>
</g>
<path fill-rule="evenodd" clip-rule="evenodd" d="M30.5185 26.8962H28.921L30.978 29.328H29.8092L26.7519 25.9313H27.5433H29.5977C32.1822 25.9313 34.2761 23.9072 34.2761 21.4259C34.2761 20.3573 33.8867 19.366 33.2375 18.5951C32.455 17.4312 33.3586 16.5779 34.1607 16.5779C33.9573 15.6691 32.8463 15.601 32.8463 15.601C32.7225 15.2431 32.408 14.7143 31.7977 14.7143H30.2017C30.1806 14.7143 30.1601 14.7174 30.14 14.7205L30.14 14.7205C30.123 14.7231 30.1063 14.7256 30.0897 14.7262C29.3048 14.8101 28.5438 15.383 29.3041 16.5115L29.3044 16.5119C29.3237 16.5388 30.3914 18.0205 30.3914 19.5439C30.3914 22.1418 28.1993 24.4236 25.4934 24.4236H20.5111H19.5502H14.4285C14.4285 25.2679 15.0931 25.9313 15.9131 25.9313H19.1453H25.2096L28.0769 29.328H19.1453V31.8378H37.8084V29.328H32.7114L30.5185 26.8962ZM28.2964 22.4761C29.0807 21.6869 29.5305 20.6207 29.5305 19.5545C29.5305 18.2689 28.5825 16.9372 28.5727 16.924L28.567 16.9142L28.5605 16.9036C28.3495 16.5923 28.2301 16.3177 28.1732 16.0661L21.0356 23.7266H25.3615C26.4571 23.7266 27.4995 23.2781 28.2964 22.4761ZM15.8443 31.8378H18.204V29.3032H15.8443V31.8378ZM38.8234 31.8572V29.3232L40.857 30.5354L38.8234 31.8572ZM31.0936 16.3816C31.3271 16.3816 31.5161 16.2001 31.5161 15.9761C31.5161 15.752 31.3271 15.5705 31.0936 15.5705C30.8601 15.5705 30.671 15.752 30.671 15.9761C30.671 16.2001 30.8601 16.3816 31.0936 16.3816Z" fill="white"/>
<defs>
<filter id="filter0_d_0_210" x="0" y="0" width="56" height="56" filterUnits="userSpaceOnUse" color-interpolation-filters="sRGB">
<feFlood flood-opacity="0" result="BackgroundImageFix"/>
<feColorMatrix in="SourceAlpha" type="matrix" values="0 0 0 0 0 0 0 0 0 0 0 0 0 0 0 0 0 0 127 0" result="hardAlpha"/>
<feOffset dy="4"/>
<feGaussianBlur stdDeviation="4"/>
<feColorMatrix type="matrix" values="0 0 0 0 0 0 0 0 0 0 0 0 0 0 0 0 0 0 0.08 0"/>
<feBlend mode="normal" in2="BackgroundImageFix" result="effect1_dropShadow_0_210"/>
<feBlend mode="normal" in="SourceGraphic" in2="effect1_dropShadow_0_210" result="shape"/>
</filter>
</defs>
</svg>
